<?xml version="1.0" encoding="UTF-8"?>
<!DOCTYPE svg PUBLIC "-//W3C//DTD SVG 1.1//EN" "http://www.w3.org/Graphics/SVG/1.1/DTD/svg11.dtd">
<svg xmlns="http://www.w3.org/2000/svg" version="1.1" width="256px" height="255px" style="shape-rendering:geometricPrecision; text-rendering:geometricPrecision; image-rendering:optimizeQuality; fill-rule:evenodd; clip-rule:evenodd" xmlns:xlink="http://www.w3.org/1999/xlink">
<g><path style="opacity:0.859" fill="#e50025" d="M 115.5,-0.5 C 118.5,-0.5 121.5,-0.5 124.5,-0.5C 128.026,5.24938 126.693,9.24938 120.5,11.5C 113.417,9.7448 111.75,5.7448 115.5,-0.5 Z"/></g>
<g><path style="opacity:0.834" fill="#e50026" d="M 131.5,-0.5 C 133.833,-0.5 136.167,-0.5 138.5,-0.5C 142.433,3.29048 142.433,7.12382 138.5,11C 131.22,12.7187 128.053,9.88542 129,2.5C 129.698,1.30943 130.531,0.309426 131.5,-0.5 Z"/></g>
<g><path style="opacity:0.903" fill="#e40026" d="M 110.5,20.5 C 107.115,20.8457 103.782,21.5123 100.5,22.5C 94.2674,20.5509 91.6007,16.2175 92.5,9.5C 92.4035,7.07406 93.0702,4.90739 94.5,3C 97.8639,1.65999 101.364,0.82666 105,0.5C 107.814,0.407636 110.147,1.40764 112,3.5C 112.584,7.0951 113.418,10.5951 114.5,14C 113.766,16.5607 112.433,18.7274 110.5,20.5 Z"/></g>
<g><path style="opacity:0.857" fill="#e50026" d="M 145.5,1.5 C 148.518,1.33537 151.518,1.50204 154.5,2C 159.577,12.2693 156.411,16.1027 145,13.5C 141.941,9.19242 142.108,5.19242 145.5,1.5 Z"/></g>
<g><path style="opacity:0.731" fill="#e50027" d="M 86.5,4.5 C 90.1477,5.50022 91.3144,7.83356 90,11.5C 86.2529,14.6028 83.7529,13.7695 82.5,9C 83.3441,6.99329 84.6774,5.49329 86.5,4.5 Z"/></g>
<g><path style="opacity:0.884" fill="#e40026" d="M 152.5,30.5 C 152.5,29.8333 152.167,29.5 151.5,29.5C 149.132,25.9481 148.965,22.2814 151,18.5C 154.111,15.0561 157.944,12.8894 162.5,12C 161.198,6.96278 163.198,4.62945 168.5,5C 172.598,8.6487 172.265,11.982 167.5,15C 170.806,18.112 172.639,21.9453 173,26.5C 176.888,23.8418 179.722,24.8418 181.5,29.5C 180.493,32.5074 178.493,34.5074 175.5,35.5C 178.291,45.2074 174.791,48.5408 165,45.5C 163.684,42.3117 163.184,38.9783 163.5,35.5C 161.473,35.6621 159.473,35.4955 157.5,35C 155.963,33.2927 154.296,31.7927 152.5,30.5 Z M 166.5,33.5 C 168.978,29.2988 170.978,29.1321 172.5,33C 170.527,33.4955 168.527,33.6621 166.5,33.5 Z"/></g>
<g><path style="opacity:0.852" fill="#e50026" d="M 175.5,10.5 C 183.505,9.3421 186.339,12.6754 184,20.5C 178.345,25.0433 174.178,23.8766 171.5,17C 172.234,14.4393 173.567,12.2726 175.5,10.5 Z"/></g>
<g><path style="opacity:0.908" fill="#e50026" d="M 69.5,39.5 C 66.9039,40.2653 64.2372,40.5987 61.5,40.5C 58.3649,38.7613 55.3649,36.7613 52.5,34.5C 52.5,33.8333 52.1667,33.5 51.5,33.5C 51.4595,28.243 53.1262,23.5763 56.5,19.5C 58.0212,18.0627 59.8546,17.396 62,17.5C 65.0914,17.9917 67.9248,18.825 70.5,20C 68.4357,11.0655 71.769,8.06548 80.5,11C 84.3464,14.5161 84.3464,18.0161 80.5,21.5C 78.677,22.7472 76.677,23.4139 74.5,23.5C 75.2132,29.4477 73.5466,34.7811 69.5,39.5 Z"/></g>
<g><path style="opacity:0.754" fill="#e50025" d="M 86.5,16.5 C 92.0204,17.0435 93.3538,19.5435 90.5,24C 86.8721,25.316 84.5388,24.1493 83.5,20.5C 84.5244,19.1482 85.5244,17.8149 86.5,16.5 Z"/></g>
<g><path style="opacity:0.86" fill="#e50026" d="M 151.5,29.5 C 152.167,29.5 152.5,29.8333 152.5,30.5C 154.189,35.1223 152.689,38.1223 148,39.5C 143.248,38.5945 141.748,35.9278 143.5,31.5C 139.565,30.6297 137.065,28.2963 136,24.5C 126.137,30.6343 121.47,27.9676 122,16.5C 129.667,10.1667 134.667,11.8333 137,21.5C 140.667,17.5 144.333,17.5 148,21.5C 148.687,23.5675 148.52,25.5675 147.5,27.5C 148.577,28.7051 149.91,29.3718 151.5,29.5 Z"/></g>
<g><path style="opacity:0.846" fill="#e50026" d="M 108.5,29.5 C 108.065,26.1625 108.732,23.1625 110.5,20.5C 118.102,18.0352 121.602,20.7019 121,28.5C 119.903,31.2648 117.903,32.9314 115,33.5C 112.439,32.7659 110.273,31.4325 108.5,29.5 Z"/></g>
<g><path style="opacity:0.919" fill="#e40026" d="M 187.5,21.5 C 200.175,19.0111 204.675,24.0111 201,36.5C 195.667,40.5 190.333,40.5 185,36.5C 184.333,32.5 184.333,28.5 185,24.5C 186.045,23.6266 186.878,22.6266 187.5,21.5 Z"/></g>
<g><path style="opacity:0.915" fill="#e50026" d="M 128.5,30.5 C 131.579,30.2601 134.579,30.5934 137.5,31.5C 147.164,46.9979 142.831,54.1645 124.5,53C 121.544,49.1424 119.544,44.809 118.5,40C 118.934,37.6839 119.934,35.6839 121.5,34C 124.069,33.1016 126.402,31.935 128.5,30.5 Z"/></g>
<g><path style="opacity:0.783" fill="#e60026" d="M 204.5,34.5 C 211.486,34.331 213.153,37.1643 209.5,43C 202.413,43.5578 200.746,40.7245 204.5,34.5 Z"/></g>
<g><path style="opacity:0.883" fill="#e50026" d="M 108.5,29.5 C 109.739,32.8368 109.739,36.1701 108.5,39.5C 116.996,39.8274 120.496,44.1608 119,52.5C 113.431,58.1737 108.431,57.8404 104,51.5C 103.022,48.3307 103.522,45.4973 105.5,43C 99.8636,44.1574 95.8636,41.9908 93.5,36.5C 91.8631,41.1618 88.5298,43.6618 83.5,44C 86.8639,46.7291 87.1972,49.7291 84.5,53C 90.5607,50.8974 94.5607,52.8974 96.5,59C 93.5693,65.4099 89.4026,66.5766 84,62.5C 83.6667,60.1667 83.3333,57.8333 83,55.5C 79.5795,60.9131 75.0795,61.9131 69.5,58.5C 68.8394,62.3352 66.8394,65.1686 63.5,67C 66.3785,69.3852 69.3785,71.5518 72.5,73.5C 73.5109,75.4024 73.6776,77.4024 73,79.5C 70.8333,82.3333 68.6667,85.1667 66.5,88C 64.913,88.8624 63.2464,89.5291 61.5,90C 63.9784,91.938 64.1451,94.1047 62,96.5C 57.5397,100.687 53.8731,100.02 51,94.5C 50.3333,93.1667 50.3333,91.8333 51,90.5C 53.0795,88.8767 55.2462,87.3767 57.5,86C 52.5419,84.0621 50.7086,80.5621 52,75.5C 54.3116,72.354 56.8116,69.354 59.5,66.5C 54.3449,59.5894 56.0116,55.4227 64.5,54C 63.7734,52.6012 63.2734,51.1012 63,49.5C 58.2845,53.3419 54.6178,52.3419 52,46.5C 48.1315,51.1014 43.6315,51.6014 38.5,48C 37.9341,47.0053 37.2674,46.172 36.5,45.5C 34.9623,33.3729 39.9623,29.3729 51.5,33.5C 52.1667,33.5 52.5,33.8333 52.5,34.5C 53.1049,37.1267 53.6049,39.7934 54,42.5C 56.1354,40.7215 58.6354,40.0548 61.5,40.5C 62.9073,42.3083 64.074,44.3083 65,46.5C 66.5106,44.1384 68.0106,41.8051 69.5,39.5C 72.1735,38.2974 74.8401,38.2974 77.5,39.5C 76.7307,34.847 78.3974,31.0137 82.5,28C 87.6406,26.8247 91.1406,28.658 93,33.5C 96.8348,27.1627 102.001,25.8293 108.5,29.5 Z M 52.5,34.5 C 55.3649,36.7613 58.3649,38.7613 61.5,40.5C 58.6354,40.0548 56.1354,40.7215 54,42.5C 53.6049,39.7934 53.1049,37.1267 52.5,34.5 Z M 69.5,39.5 C 68.0106,41.8051 66.5106,44.1384 65,46.5C 64.074,44.3083 62.9073,42.3083 61.5,40.5C 64.2372,40.5987 66.9039,40.2653 69.5,39.5 Z"/></g>
<g><path style="opacity:0.826" fill="#e50025" d="M 184.5,40.5 C 190.986,38.8346 193.819,41.168 193,47.5C 188.616,51.5653 185.449,50.7319 183.5,45C 183.773,43.4672 184.106,41.9672 184.5,40.5 Z"/></g>
<g><path style="opacity:0.809" fill="#e50025" d="M 148.5,40.5 C 155.985,41.8052 157.319,45.3052 152.5,51C 146.833,52.3277 144.333,50.1611 145,44.5C 145.69,42.6498 146.856,41.3164 148.5,40.5 Z"/></g>
<g><path style="opacity:0.757" fill="#e70024" d="M 36.5,45.5 C 36.9267,52.602 34.0934,54.602 28,51.5C 26.9087,43.749 29.742,41.749 36.5,45.5 Z"/></g>
<g><path style="opacity:0.762" fill="#e50026" d="M 92.5,43.5 C 99.9974,42.8038 101.997,45.6372 98.5,52C 91.6321,52.4101 89.6321,49.5768 92.5,43.5 Z"/></g>
<g><path style="opacity:0.858" fill="#e50025" d="M 202.5,44.5 C 207.146,44.9759 210.146,47.4759 211.5,52C 210.044,55.4905 207.544,57.9905 204,59.5C 198.985,57.4832 196.985,53.8165 198,48.5C 199.992,47.6719 201.492,46.3386 202.5,44.5 Z"/></g>
<g><path style="opacity:0.735" fill="#e50026" d="M 160.5,45.5 C 165.262,46.0925 166.596,48.5925 164.5,53C 158.202,53.4954 156.868,50.9954 160.5,45.5 Z"/></g>
<g><path style="opacity:0.775" fill="#e50025" d="M 175.5,46.5 C 181.448,45.2834 183.948,47.6168 183,53.5C 178.674,57.6017 175.508,56.7684 173.5,51C 174.044,49.415 174.711,47.915 175.5,46.5 Z"/></g>
<g><path style="opacity:0.906" fill="#e50026" d="M 35.5,53.5 C 40.1785,53.3342 44.8452,53.5008 49.5,54C 54.8333,60 54.8333,66 49.5,72C 35.752,76.2449 30.252,71.4116 33,57.5C 33.6622,56.0161 34.4955,54.6828 35.5,53.5 Z"/></g>
<g><path style="opacity:0.794" fill="#e50026" d="M 189.5,53.5 C 195.703,52.7569 197.703,55.2569 195.5,61C 191.4,63.4364 188.733,62.2697 187.5,57.5C 188.18,56.1401 188.847,54.8068 189.5,53.5 Z"/></g>
<g><path style="opacity:0.753" fill="#e50027" d="M 212.5,59.5 C 217.262,60.0925 218.596,62.5925 216.5,67C 209.17,67.4855 207.837,64.9855 212.5,59.5 Z"/></g>
<g><path style="opacity:0.767" fill="#e50026" d="M 72.5,73.5 C 70.4802,69.2392 71.6469,66.2392 76,64.5C 79.9011,65.3176 81.5678,67.6509 81,71.5C 78.7461,74.6051 75.9128,75.2717 72.5,73.5 Z"/></g>
<g><path style="opacity:0.878" fill="#e50026" d="M 27.5,76.5 C 25.0815,84.9553 20.2482,86.6219 13,81.5C 14.033,84.7694 12.8664,87.1027 9.5,88.5C 4.17519,85.2505 4.50852,82.4172 10.5,80C 9.56936,75.6198 10.4027,71.4532 13,67.5C 15.405,66.7256 17.905,66.2256 20.5,66C 16.3129,61.5397 16.9796,57.8731 22.5,55C 27.2942,54.1054 30.2942,56.1054 31.5,61C 30.853,66.3102 27.853,68.6436 22.5,68C 26.9529,69.1092 28.6195,71.9425 27.5,76.5 Z"/></g>
<g><path style="opacity:0.738" fill="#e50026" d="M 27.5,76.5 C 30.782,73.5895 33.4486,74.0895 35.5,78C 35.0553,81.7892 33.0553,83.1225 29.5,82C 27.8446,80.5557 27.178,78.7224 27.5,76.5 Z"/></g>
<g><path style="opacity:0.86" fill="#e50026" d="M 40.5,74.5 C 50.0267,74.018 52.6934,78.018 48.5,86.5C 39.7298,89.9039 36.2298,86.9039 38,77.5C 39.045,76.6266 39.8783,75.6266 40.5,74.5 Z"/></g>
<g><path style="opacity:0.973" fill="#e50026" d="M 255.5,110.5 C 255.5,121.5 255.5,132.5 255.5,143.5C 243.84,204.16 207.84,241.16 147.5,254.5C 134.167,254.5 120.833,254.5 107.5,254.5C 48.5269,241.527 12.5269,205.527 -0.5,146.5C -0.5,133.833 -0.5,121.167 -0.5,108.5C 8.71364,86.4813 24.047,80.9813 45.5,92C 55.5012,101.68 58.8346,113.346 55.5,127C 58.1606,163.661 77.1606,186.995 112.5,197C 148.099,201.784 174.599,188.617 192,157.5C 194.614,151.716 196.614,145.716 198,139.5C 198.333,128.833 198.667,118.167 199,107.5C 207.359,87.7411 221.525,81.9078 241.5,90C 248.801,95.1173 253.467,101.951 255.5,110.5 Z M 30.5,95.5 C 37.536,94.6026 39.2027,97.1026 35.5,103C 29.7853,103.401 28.1187,100.901 30.5,95.5 Z M 15.5,96.5 C 18.0838,97.0483 19.0838,98.715 18.5,101.5C 17.1667,101.5 15.8333,101.5 14.5,101.5C 14.366,99.7085 14.6993,98.0418 15.5,96.5 Z M 22.5,104.5 C 25.8606,105.203 26.1939,106.537 23.5,108.5C 21.3576,107.563 21.0243,106.23 22.5,104.5 Z M 43.5,106.5 C 47.1612,106.35 48.1612,107.85 46.5,111C 42.7071,111.487 41.7071,109.987 43.5,106.5 Z M 9.5,107.5 C 15.0641,108.293 16.7307,111.293 14.5,116.5C 5.98178,117.204 4.31511,114.204 9.5,107.5 Z M 29.5,109.5 C 31.3904,109.297 32.8904,109.963 34,111.5C 39.7417,119.357 37.7417,124.024 28,125.5C 26.8926,125.415 25.8926,125.081 25,124.5C 23.5555,121.945 22.3888,119.279 21.5,116.5C 21.5288,114.971 22.1955,113.804 23.5,113C 25.7274,112.059 27.7274,110.892 29.5,109.5 Z M 41.5,118.5 C 45.145,117.68 47.4783,119.013 48.5,122.5C 45.213,127.907 42.213,127.74 39.5,122C 40.305,120.887 40.9717,119.721 41.5,118.5 Z M 10.5,120.5 C 13.8606,121.203 14.1939,122.537 11.5,124.5C 9.35765,123.563 9.02431,122.23 10.5,120.5 Z M 32.5,128.5 C 39.536,127.603 41.2027,130.103 37.5,136C 31.7853,136.401 30.1187,133.901 32.5,128.5 Z M 16.5,129.5 C 22.2748,128.275 24.9415,130.608 24.5,136.5C 24.4493,138.1 24.1159,139.6 23.5,141C 14.856,144.69 11.0227,141.857 12,132.5C 13.4087,131.219 14.9087,130.219 16.5,129.5 Z M 34.5,142.5 C 35.4959,142.414 36.3292,142.748 37,143.5C 37.4935,145.134 37.6602,146.801 37.5,148.5C 32.2938,148.541 31.2938,146.541 34.5,142.5 Z M 24.5,150.5 C 27.9103,150.384 29.2436,152.05 28.5,155.5C 26.8333,155.5 25.1667,155.5 23.5,155.5C 23.366,153.708 23.6993,152.042 24.5,150.5 Z M 31.5,162.5 C 36.7269,162.284 37.5603,163.951 34,167.5C 32.1079,166.383 31.2746,164.716 31.5,162.5 Z"/></g>
</svg>
